<svg width="128" height="128" viewBox="0 0 128 128" fill="none" xmlns="http://www.w3.org/2000/svg">
<path d="M13.6048 45.4298L18.2048 50.0298L29.2048 61.0298C33.6298 65.4548 38.0673 69.8923 42.4923 74.3173L53.9798 85.8048C55.8423 87.6673 57.6798 89.5548 59.5673 91.3923C59.5923 91.4173 59.6173 91.4423 59.6423 91.4673C62.0298 93.8548 66.0923 93.8548 68.4798 91.4673L73.0798 86.8673L84.0798 75.8673L97.3673 62.5798L108.855 51.0923C110.717 49.2298 112.605 47.3923 114.442 45.5048L114.517 45.4298C115.655 44.2923 116.342 42.6173 116.342 41.0048C116.342 39.4673 115.667 37.6423 114.517 36.5798C113.33 35.4923 111.767 34.6798 110.092 34.7548C108.43 34.8298 106.867 35.3923 105.667 36.5798C104.13 38.1173 102.605 39.6423 101.067 41.1798C97.4048 44.8423 93.7423 48.5048 90.0673 52.1798C85.6423 56.6048 81.2048 61.0423 76.7798 65.4673C72.9548 69.2923 69.1173 73.1298 65.2923 76.9548C63.4298 78.8173 61.5298 80.6548 59.7048 82.5423C59.6798 82.5673 59.6548 82.5923 59.6298 82.6173H68.4673C66.9298 81.0798 65.4048 79.5548 63.8673 78.0173C60.2048 74.3548 56.5423 70.6923 52.8673 67.0173C48.4423 62.5923 44.0048 58.1548 39.5798 53.7298C35.7548 49.9048 31.9173 46.0673 28.0923 42.2423C26.2298 40.3798 24.3923 38.4923 22.5048 36.6548C22.4798 36.6298 22.4548 36.6048 22.4298 36.5798C21.2923 35.4423 19.6173 34.7548 18.0048 34.7548C16.4673 34.7548 14.6423 35.4298 13.5798 36.5798C12.4923 37.7673 11.6798 39.3298 11.7548 41.0048C11.8548 42.6673 12.4173 44.2298 13.6048 45.4298Z" fill="#BC8462"/>
</svg>
