<svg width="128" height="128" viewBox="0 0 128 128" fill="none" xmlns="http://www.w3.org/2000/svg">
<path d="M48.8375 26.275H55.4H71.0125H89.8875H106.312C108.95 26.275 111.6 26.3125 114.237 26.275H114.35C116.962 26.275 119.475 23.975 119.35 21.275C119.225 18.5625 117.15 16.275 114.35 16.275C112.162 16.275 109.975 16.275 107.787 16.275C102.587 16.275 97.375 16.275 92.175 16.275C85.8875 16.275 79.5875 16.275 73.3 16.275C67.825 16.275 62.35 16.275 56.875 16.275C54.2375 16.275 51.5875 16.2375 48.95 16.275C48.9125 16.275 48.875 16.275 48.8375 16.275C46.225 16.275 43.7125 18.575 43.8375 21.275C43.9625 23.9875 46.0375 26.275 48.8375 26.275Z" fill="#BC8462"/>
<path d="M12.3375 26.2749H25.9125H27.8375C30.45 26.2749 32.9625 23.9749 32.8375 21.2749C32.7125 18.5624 30.6375 16.2749 27.8375 16.2749C23.3125 16.2749 18.7875 16.2749 14.2625 16.2749C13.625 16.2749 12.975 16.2749 12.3375 16.2749C9.72498 16.2749 7.21249 18.5749 7.33749 21.2749C7.46249 23.9874 9.53748 26.2749 12.3375 26.2749Z" fill="#BC8462"/>
<path d="M38.3376 26.7875C37.8751 26.7875 37.4126 26.75 36.9501 26.7C37.3876 26.7625 37.8376 26.825 38.2751 26.875C37.3251 26.7375 36.4126 26.4875 35.5251 26.125C35.9251 26.2875 36.3251 26.4625 36.7251 26.625C35.9126 26.275 35.1626 25.825 34.4626 25.3L35.4751 26.0875C34.7376 25.5125 34.0876 24.8625 33.5126 24.125C33.7751 24.4625 34.0376 24.8 34.3001 25.1375C33.7626 24.4375 33.3251 23.675 32.9751 22.875C33.1376 23.275 33.3126 23.675 33.4751 24.075C33.1001 23.1875 32.8501 22.275 32.7251 21.325C32.7876 21.7625 32.8501 22.2125 32.9001 22.65C32.7876 21.725 32.7876 20.8 32.9001 19.875C32.8376 20.3125 32.7751 20.7625 32.7251 21.2C32.8626 20.25 33.1126 19.3375 33.4751 18.45C33.3126 18.85 33.1376 19.25 32.9751 19.65C33.3251 18.8375 33.7751 18.0875 34.3001 17.3875C34.0376 17.725 33.7751 18.0625 33.5126 18.4C34.0876 17.6625 34.7376 17.0125 35.4751 16.4375C35.1376 16.7 34.8001 16.9625 34.4626 17.225C35.1626 16.6875 35.9251 16.25 36.7251 15.9C36.3251 16.0625 35.9251 16.2375 35.5251 16.4C36.4126 16.025 37.3251 15.775 38.2751 15.65C37.8376 15.7125 37.3876 15.775 36.9501 15.825C37.8751 15.7125 38.8001 15.7125 39.7251 15.825C39.2876 15.7625 38.8376 15.7 38.4001 15.65C39.3501 15.7875 40.2626 16.0375 41.1501 16.4C40.7501 16.2375 40.3501 16.0625 39.9501 15.9C40.7626 16.25 41.5126 16.7 42.2126 17.225C41.8751 16.9625 41.5376 16.7 41.2001 16.4375C41.9376 17.0125 42.5876 17.6625 43.1626 18.4C42.9001 18.0625 42.6376 17.725 42.3751 17.3875C42.9126 18.0875 43.3501 18.85 43.7001 19.65C43.5376 19.25 43.3626 18.85 43.2001 18.45C43.5751 19.3375 43.8251 20.25 43.9501 21.2C43.8876 20.7625 43.8251 20.3125 43.7751 19.875C43.8876 20.8 43.8876 21.725 43.7751 22.65C43.8376 22.2125 43.9001 21.7625 43.9501 21.325C43.8126 22.275 43.5626 23.1875 43.2001 24.075C43.3626 23.675 43.5376 23.275 43.7001 22.875C43.3501 23.6875 42.9001 24.4375 42.3751 25.1375C42.6376 24.8 42.9001 24.4625 43.1626 24.125C42.5876 24.8625 41.9376 25.5125 41.2001 26.0875C41.5376 25.825 41.8751 25.5625 42.2126 25.3C41.5126 25.8375 40.7501 26.275 39.9501 26.625C40.3501 26.4625 40.7501 26.2875 41.1501 26.125C40.2626 26.5 39.3501 26.75 38.4001 26.875C38.8376 26.8125 39.2876 26.75 39.7251 26.7C39.2626 26.75 38.8001 26.7875 38.3376 26.7875C37.0501 26.8 35.7126 27.3375 34.8001 28.25C33.9376 29.1125 33.2751 30.5375 33.3376 31.7875C33.4626 34.475 35.5376 36.8125 38.3376 36.7875C41.3501 36.7625 44.5376 35.9 47.0001 34.125C48.6126 32.9625 49.8251 31.7625 51.0126 30.175C51.9001 28.975 52.5126 27.65 53.0251 26.25C54.1001 23.375 54.1126 19.9625 53.2876 17.0375C52.4876 14.2125 50.8126 11.425 48.5251 9.54997C46.9876 8.29997 45.5501 7.43747 43.7126 6.69997C42.2876 6.12497 40.7626 5.87497 39.2126 5.74997C36.2001 5.49997 32.9376 6.34997 30.3501 7.92497C27.8376 9.44997 25.6126 11.75 24.3876 14.4375C24.0001 15.2875 23.6251 16.15 23.3751 17.0375C23.1126 17.9625 23.0001 18.9125 22.8876 19.8625C22.7001 21.4625 22.8626 23.0625 23.1751 24.6375C23.8001 27.7625 25.6626 30.925 28.1376 32.95C29.7626 34.275 31.2876 35.175 33.2501 35.925C34.8501 36.5375 36.6376 36.775 38.3376 36.7875C40.9501 36.8125 43.4626 34.475 43.3376 31.7875C43.2126 29.0625 41.1376 26.8125 38.3376 26.7875Z" fill="#BC8462"/>
<path d="M97.5875 69.0249H112.275H114.337C116.95 69.0249 119.462 66.7249 119.337 64.0249C119.212 61.3124 117.137 59.0249 114.337 59.0249C109.437 59.0249 104.537 59.0249 99.65 59.0249C98.9625 59.0249 98.275 59.0249 97.5875 59.0249C94.975 59.0249 92.4625 61.3249 92.5875 64.0249C92.7125 66.7374 94.7875 69.0249 97.5875 69.0249Z" fill="#BC8462"/>
<path d="M12.3375 69.025H18.7625H34.0625H52.625H68.675C71.275 69.025 73.875 69.0625 76.475 69.025H76.5875C79.2 69.025 81.7125 66.725 81.5875 64.025C81.4625 61.3125 79.3875 59.025 76.5875 59.025C74.45 59.025 72.3 59.025 70.1625 59.025C65.0625 59.025 59.9625 59.025 54.8625 59.025C48.675 59.025 42.4875 59.025 36.3 59.025C30.95 59.025 25.6 59.025 20.25 59.025C17.65 59.025 15.05 58.9875 12.45 59.025C12.4125 59.025 12.375 59.025 12.3375 59.025C9.72498 59.025 7.21249 61.325 7.33749 64.025C7.46249 66.7375 9.53748 69.025 12.3375 69.025Z" fill="#BC8462"/>
<path d="M87.0874 69.5375C86.6249 69.5375 86.1624 69.5 85.6999 69.45C86.1374 69.5125 86.5874 69.575 87.0249 69.625C86.0749 69.4875 85.1624 69.2375 84.2749 68.875C84.6749 69.0375 85.0749 69.2125 85.4749 69.375C84.6624 69.025 83.9124 68.575 83.2124 68.05C83.5499 68.3125 83.8874 68.575 84.2249 68.8375C83.4874 68.2625 82.8374 67.6125 82.2624 66.875C82.5249 67.2125 82.7874 67.55 83.0499 67.8875C82.5124 67.1875 82.0749 66.425 81.7249 65.625C81.8874 66.025 82.0624 66.425 82.2249 66.825C81.8499 65.9375 81.5999 65.025 81.4749 64.075C81.5374 64.5125 81.5999 64.9625 81.6499 65.4C81.5374 64.475 81.5374 63.55 81.6499 62.625C81.5874 63.0625 81.5249 63.5125 81.4749 63.95C81.6124 63 81.8624 62.0875 82.2249 61.2C82.0624 61.6 81.8874 62 81.7249 62.4C82.0749 61.5875 82.5249 60.8375 83.0499 60.1375C82.7874 60.475 82.5249 60.8125 82.2624 61.15C82.8374 60.4125 83.4874 59.7625 84.2249 59.1875C83.8874 59.45 83.5499 59.7125 83.2124 59.975C83.9124 59.4375 84.6749 59 85.4749 58.65C85.0749 58.8125 84.6749 58.9875 84.2749 59.15C85.1624 58.775 86.0749 58.525 87.0249 58.4C86.5874 58.4625 86.1374 58.525 85.6999 58.575C86.6249 58.4625 87.5499 58.4625 88.4749 58.575C88.0374 58.5125 87.5874 58.45 87.1499 58.4C88.0999 58.5375 89.0124 58.7875 89.8999 59.15C89.4999 58.9875 89.0999 58.8125 88.6999 58.65C89.5124 59 90.2624 59.45 90.9624 59.975C90.6249 59.7125 90.2874 59.45 89.9499 59.1875C90.6874 59.7625 91.3374 60.4125 91.9124 61.15C91.6499 60.8125 91.3874 60.475 91.1249 60.1375C91.6624 60.8375 92.0999 61.6 92.4499 62.4C92.2874 62 92.1124 61.6 91.9499 61.2C92.3249 62.0875 92.5749 63 92.6999 63.95C92.6374 63.5125 92.5749 63.0625 92.5249 62.625C92.6374 63.55 92.6374 64.475 92.5249 65.4C92.5874 64.9625 92.6499 64.5125 92.6999 64.075C92.5624 65.025 92.3124 65.9375 91.9499 66.825C92.1124 66.425 92.2874 66.025 92.4499 65.625C92.0999 66.4375 91.6499 67.1875 91.1249 67.8875C91.3874 67.55 91.6499 67.2125 91.9124 66.875C91.3374 67.6125 90.6874 68.2625 89.9499 68.8375C90.2874 68.575 90.6249 68.3125 90.9624 68.05C90.2624 68.5875 89.4999 69.025 88.6999 69.375C89.0999 69.2125 89.4999 69.0375 89.8999 68.875C89.0124 69.25 88.0999 69.5 87.1499 69.625C87.5874 69.5625 88.0374 69.5 88.4749 69.45C88.0124 69.5 87.5499 69.5375 87.0874 69.5375C85.7999 69.55 84.4624 70.0875 83.5499 71C82.6874 71.8625 82.0249 73.2875 82.0874 74.5375C82.2124 77.225 84.2874 79.5625 87.0874 79.5375C90.0999 79.5125 93.2874 78.65 95.7499 76.875C97.3624 75.7125 98.5749 74.5125 99.7624 72.925C100.65 71.725 101.262 70.4 101.775 69C102.85 66.125 102.862 62.7125 102.037 59.7875C101.237 56.9625 99.5624 54.175 97.2749 52.3C95.7374 51.05 94.2999 50.1875 92.4624 49.45C91.0124 48.875 89.4999 48.625 87.9374 48.5C84.9249 48.25 81.6624 49.1 79.0749 50.675C76.5624 52.2 74.3374 54.5 73.1124 57.1875C72.7249 58.0375 72.3499 58.9 72.0999 59.7875C71.8374 60.7125 71.7249 61.6625 71.6124 62.6125C71.4249 64.2125 71.5874 65.8125 71.8999 67.3875C72.5249 70.5125 74.3874 73.675 76.8624 75.7C78.4874 77.025 80.0124 77.925 81.9749 78.675C83.5749 79.2875 85.3624 79.525 87.0624 79.5375C89.6749 79.5625 92.1874 77.225 92.0624 74.5375C91.9624 71.8125 89.8874 69.5625 87.0874 69.5375Z" fill="#BC8462"/>
<path d="M68.8375 111.775H73.35H84.2H97.3375H108.7C110.55 111.775 112.4 111.812 114.25 111.775H114.337C116.95 111.775 119.462 109.475 119.337 106.775C119.212 104.062 117.137 101.775 114.337 101.775C112.837 101.775 111.325 101.775 109.825 101.775C106.212 101.775 102.587 101.775 98.975 101.775C94.6 101.775 90.2125 101.775 85.8375 101.775C82.05 101.775 78.2625 101.775 74.475 101.775C72.625 101.775 70.775 101.737 68.925 101.775C68.9 101.775 68.875 101.775 68.8375 101.775C66.225 101.775 63.7125 104.075 63.8375 106.775C63.9625 109.487 66.0375 111.775 68.8375 111.775Z" fill="#BC8462"/>
<path d="M12.3375 111.775H24.3125H43.4625H47.8375C50.45 111.775 52.9625 109.475 52.8375 106.775C52.7125 104.062 50.6375 101.775 47.8375 101.775C43.85 101.775 39.8625 101.775 35.8625 101.775C29.475 101.775 23.1 101.775 16.7125 101.775C15.25 101.775 13.7875 101.775 12.3375 101.775C9.72498 101.775 7.21249 104.075 7.33749 106.775C7.46249 109.487 9.53748 111.775 12.3375 111.775Z" fill="#BC8462"/>
<path d="M58.3374 112.287C57.8749 112.287 57.4124 112.25 56.9499 112.2C57.3874 112.262 57.8374 112.325 58.2749 112.375C57.3249 112.237 56.4124 111.987 55.5249 111.625C55.9249 111.787 56.3249 111.962 56.7249 112.125C55.9124 111.775 55.1624 111.325 54.4624 110.8L55.4749 111.587C54.7374 111.012 54.0874 110.362 53.5124 109.625L54.2999 110.637C53.7624 109.937 53.3249 109.175 52.9749 108.375C53.1374 108.775 53.3124 109.175 53.4749 109.575C53.0999 108.687 52.8499 107.775 52.7249 106.825C52.7874 107.262 52.8499 107.712 52.8999 108.15C52.7874 107.225 52.7874 106.3 52.8999 105.375C52.8374 105.812 52.7749 106.262 52.7249 106.7C52.8624 105.75 53.1124 104.837 53.4749 103.95C53.3124 104.35 53.1374 104.75 52.9749 105.15C53.3249 104.337 53.7749 103.587 54.2999 102.887C54.0374 103.225 53.7749 103.562 53.5124 103.9C54.0874 103.162 54.7374 102.512 55.4749 101.937C55.1374 102.2 54.7999 102.462 54.4624 102.725C55.1624 102.187 55.9249 101.75 56.7249 101.4C56.3249 101.562 55.9249 101.737 55.5249 101.9C56.4124 101.525 57.3249 101.275 58.2749 101.15C57.8374 101.212 57.3874 101.275 56.9499 101.325C57.8749 101.212 58.7999 101.212 59.7249 101.325C59.2874 101.262 58.8374 101.2 58.3999 101.15C59.3499 101.287 60.2624 101.537 61.1499 101.9C60.7499 101.737 60.3499 101.562 59.9499 101.4C60.7624 101.75 61.5124 102.2 62.2124 102.725C61.8749 102.462 61.5374 102.2 61.1999 101.937C61.9374 102.512 62.5874 103.162 63.1624 103.9C62.8999 103.562 62.6374 103.225 62.3749 102.887C62.9124 103.587 63.3499 104.35 63.6999 105.15C63.5374 104.75 63.3624 104.35 63.1999 103.95C63.5749 104.837 63.8249 105.75 63.9499 106.7C63.8874 106.262 63.8249 105.812 63.7749 105.375C63.8874 106.3 63.8874 107.225 63.7749 108.15C63.8374 107.712 63.8999 107.262 63.9499 106.825C63.8124 107.775 63.5624 108.687 63.1999 109.575C63.3624 109.175 63.5374 108.775 63.6999 108.375C63.3499 109.187 62.8999 109.937 62.3749 110.637L63.1624 109.625C62.5874 110.362 61.9374 111.012 61.1999 111.587L62.2124 110.8C61.5124 111.337 60.7499 111.775 59.9499 112.125C60.3499 111.962 60.7499 111.787 61.1499 111.625C60.2624 112 59.3499 112.25 58.3999 112.375C58.8374 112.312 59.2874 112.25 59.7249 112.2C59.2624 112.25 58.7999 112.287 58.3374 112.287C57.0499 112.3 55.7124 112.837 54.7999 113.75C53.9374 114.612 53.2749 116.037 53.3374 117.287C53.4624 119.975 55.5374 122.312 58.3374 122.287C61.3499 122.262 64.5374 121.4 66.9999 119.625C68.6124 118.462 69.8249 117.262 71.0124 115.675C71.8999 114.475 72.5124 113.15 73.0249 111.75C74.0999 108.875 74.1124 105.462 73.2874 102.537C72.4874 99.7125 70.8124 96.925 68.5249 95.05C66.9874 93.8 65.5499 92.9375 63.7124 92.2C62.2624 91.625 60.7499 91.375 59.1874 91.25C56.1749 91 52.9124 91.85 50.3249 93.425C47.8124 94.95 45.5874 97.25 44.3624 99.9375C43.9749 100.787 43.5999 101.65 43.3499 102.537C43.0874 103.462 42.9749 104.412 42.8624 105.362C42.6749 106.962 42.8374 108.562 43.1499 110.137C43.7749 113.262 45.6374 116.425 48.1124 118.45C49.7374 119.775 51.2624 120.675 53.2249 121.425C54.8249 122.037 56.6124 122.275 58.3124 122.287C60.9249 122.312 63.4374 119.975 63.3124 117.287C63.2124 114.562 61.1374 112.312 58.3374 112.287Z" fill="#BC8462"/>
</svg>
