<svg width="24" height="24" viewBox="0 0 24 24" fill="none" xmlns="http://www.w3.org/2000/svg">
<g id="tabler:heart-filled">
<path id="Vector" d="M12.0003 5.86878L11.3383 5.27831L11.3035 5.24731C11.3031 5.24697 11.3028 5.24663 11.3024 5.2463C10.7428 4.75049 10.0791 4.3865 9.36015 4.18111C8.64077 3.9756 7.88444 3.93414 7.14691 4.05979L12.0003 5.86878ZM12.0003 5.86878L12.6655 5.28185M12.0003 5.86878L12.6655 5.28185M12.6655 5.28185L12.6975 5.25363C12.6978 5.25335 12.6981 5.25308 12.6984 5.2528C13.2326 4.7843 13.8604 4.435 14.5401 4.2282C15.2179 4.022 15.9317 3.96218 16.6342 4.05266L16.8588 4.08553C17.7428 4.2404 18.569 4.63039 19.2505 5.21466C19.935 5.80158 20.4481 6.56272 20.7354 7.41746C21.0227 8.2722 21.0736 9.18873 20.8825 10.07C20.6921 10.9481 20.2686 11.7586 19.6567 12.4163L19.5163 12.5606L19.5034 12.5716L19.4754 12.5956M12.6655 5.28185L19.4754 12.5956M19.4754 12.5956L19.4492 12.6215M19.4754 12.5956L19.4492 12.6215M19.4492 12.6215L12.0008 19.9989L11.9771 19.9783L4.50662 12.5785L4.50664 12.5785M19.4492 12.6215L4.50664 12.5785M4.50664 12.5785L4.50025 12.5723M4.50664 12.5785L4.50025 12.5723M4.50025 12.5723C3.83876 11.9287 3.36833 11.1145 3.14104 10.22M4.50025 12.5723L3.14104 10.22M3.14104 10.22C2.91376 9.32551 2.9385 8.38554 3.21251 7.50422M3.14104 10.22L3.21251 7.50422M3.21251 7.50422C3.48653 6.6229 3.99913 5.83463 4.69355 5.22669M3.21251 7.50422L4.69355 5.22669M4.69355 5.22669C5.38795 4.61876 6.23706 4.21489 7.14685 4.05981L4.69355 5.22669Z" stroke="#EBD8CB" stroke-width="2"/>
</g>
</svg>
