<svg width="23" height="22" viewBox="0 0 23 22" fill="none" xmlns="http://www.w3.org/2000/svg">
<path d="M3.725 12.11L9.515 8.9C11.405 7.85 14.305 10.68 13.225 12.61L10.005 18.42C7.925 22.16 -0.085 14.23 3.725 12.11ZM9.625 8.5L8.625 6.21C8.325 5.48 7.925 5 7.125 5H3.625C1.915 5 1.125 5.5 1.125 7.5C1.20801 9.29397 1.91548 11.0025 3.125 12.33M7.125 5C7.125 3.45 7.365 1 5.125 1C3.125 1 2.625 3.17 2.625 5M13.625 12.5L15.915 13.5C16.645 13.8 17.125 14.2 17.125 15V18.5C17.125 20.21 16.625 21 14.625 21C12.831 20.917 11.1225 20.2095 9.795 19M17.125 15C18.675 15 21.125 14.76 21.125 17C21.125 19 18.955 19.5 17.125 19.5"/>
<path d="M9.625 8.5L8.625 6.21C8.325 5.48 7.925 5 7.125 5M7.125 5H3.625C1.915 5 1.125 5.5 1.125 7.5C1.20801 9.29397 1.91548 11.0025 3.125 12.33M7.125 5C7.125 3.45 7.365 1 5.125 1C3.125 1 2.625 3.17 2.625 5M13.625 12.5L15.915 13.5C16.645 13.8 17.125 14.2 17.125 15M17.125 15V18.5C17.125 20.21 16.625 21 14.625 21C12.831 20.917 11.1225 20.2095 9.795 19M17.125 15C18.675 15 21.125 14.76 21.125 17C21.125 19 18.955 19.5 17.125 19.5M3.725 12.11L9.515 8.9C11.405 7.85 14.305 10.68 13.225 12.61L10.005 18.42C7.925 22.16 -0.085 14.23 3.725 12.11Z" stroke="#613E29" stroke-width="2" stroke-linecap="round" stroke-linejoin="round"/>
</svg>
