<svg width="20" height="22" viewBox="0 0 20 22" fill="none" xmlns="http://www.w3.org/2000/svg">
<path d="M8.3 19.8639C8.46738 20.1641 8.71345 20.4145 9.01249 20.5889C9.31153 20.7633 9.65258 20.8553 10 20.8553C10.3474 20.8553 10.6885 20.7633 10.9875 20.5889C11.2866 20.4145 11.5326 20.1641 11.7 19.8639M4 7.04399C4 5.47474 4.63214 3.96976 5.75736 2.86013C6.88258 1.7505 8.4087 1.12712 10 1.12712C11.5913 1.12712 13.1174 1.7505 14.2426 2.86013C15.3679 3.96976 16 5.47474 16 7.04399C16 13.947 19 15.9193 19 15.9193H1C1 15.9193 4 13.947 4 7.04399Z" stroke="#613E29" stroke-width="2" stroke-linecap="round" stroke-linejoin="round"/>
</svg>
