<svg width="17" height="17" viewBox="0 0 17 17" fill="#BC8462" fill-opacity="0.8" xmlns="http://www.w3.org/2000/svg">
<path d="M13.4585 7.79158H9.2085V3.54159C9.2085 3.35372 9.13387 3.17356 9.00103 3.04072C8.86819 2.90788 8.68802 2.83325 8.50016 2.83325C8.3123 2.83325 8.13213 2.90788 7.9993 3.04072C7.86646 3.17356 7.79183 3.35372 7.79183 3.54159V7.79158H3.54183C3.35397 7.79158 3.1738 7.86621 3.04096 7.99905C2.90812 8.13189 2.8335 8.31206 2.8335 8.49992C2.8335 8.68778 2.90812 8.86795 3.04096 9.00079C3.1738 9.13362 3.35397 9.20825 3.54183 9.20825H7.79183V13.4583C7.79183 13.6461 7.86646 13.8263 7.9993 13.9591C8.13213 14.092 8.3123 14.1666 8.50016 14.1666C8.68802 14.1666 8.86819 14.092 9.00103 13.9591C9.13387 13.8263 9.2085 13.6461 9.2085 13.4583V9.20825H13.4585C13.6464 9.20825 13.8265 9.13362 13.9594 9.00079C14.0922 8.86795 14.1668 8.68778 14.1668 8.49992C14.1668 8.31206 14.0922 8.13189 13.9594 7.99905C13.8265 7.86621 13.6464 7.79158 13.4585 7.79158Z" />
</svg>
