<svg width="8" height="8" viewBox="0 0 8 8" fill="none" xmlns="http://www.w3.org/2000/svg">
<path d="M3.9998 6.70199L2.06084 7.92498C1.97519 7.98206 1.88564 8.00652 1.79219 7.99836C1.69875 7.99021 1.61699 7.9576 1.5469 7.90052C1.47682 7.84345 1.42231 7.77219 1.38338 7.68675C1.34444 7.6013 1.33665 7.50542 1.36002 7.3991L1.87396 5.08764L0.156927 3.53445C0.0790577 3.46107 0.0304669 3.37741 0.0111552 3.28349C-0.00815649 3.18956 -0.00239415 3.09792 0.0284423 3.00856C0.0592787 2.9192 0.106001 2.84582 0.168608 2.78842C0.231215 2.73102 0.316872 2.69433 0.425578 2.67835L2.69159 2.47044L3.56762 0.293518C3.60656 0.195679 3.66699 0.122299 3.7489 0.0733794C3.83082 0.0244598 3.91446 0 3.9998 0C4.08515 0 4.16878 0.0244598 4.2507 0.0733794C4.33262 0.122299 4.39304 0.195679 4.43198 0.293518L5.30801 2.47044L7.57402 2.67835C7.68304 2.69466 7.7687 2.73135 7.83099 2.78842C7.89329 2.84549 7.94001 2.91887 7.97116 3.00856C8.00231 3.09825 8.00822 3.19005 7.98891 3.28398C7.9696 3.3779 7.92086 3.46139 7.84267 3.53445L6.12565 5.08764L6.63959 7.3991C6.66295 7.50509 6.65516 7.60097 6.61623 7.68675C6.57729 7.77252 6.52278 7.84378 6.4527 7.90052C6.38262 7.95727 6.30085 7.98988 6.20741 7.99836C6.11397 8.00684 6.02441 7.98238 5.93876 7.92498L3.9998 6.70199Z" fill="#DEBBA3"/>
</svg>
