<svg width="128" height="128" viewBox="0 0 128 128" fill="#E2E8F0" xmlns="http://www.w3.org/2000/svg">
<path d="M26.8751 35.65C27.0626 35.4 27.2501 35.15 27.4376 34.9125C27.1501 35.2875 26.8501 35.675 26.5626 36.05C29.3251 32.475 32.5376 29.275 36.1126 26.5125C35.7376 26.8 35.3501 27.1 34.9751 27.3875C38.5376 24.6625 42.4251 22.3875 46.5501 20.6375C46.1001 20.825 45.6501 21.0125 45.2126 21.2C49.4501 19.425 53.8876 18.2125 58.4376 17.5875C57.9376 17.65 57.4376 17.725 56.9376 17.7875C61.6501 17.1625 66.4126 17.1625 71.1251 17.7875C70.6251 17.725 70.1251 17.65 69.6251 17.5875C74.1376 18.2125 78.5501 19.4125 82.7626 21.175C82.3126 20.9875 81.8626 20.8 81.4251 20.6125C85.5751 22.3625 89.4876 24.65 93.0626 27.3875C92.6876 27.1 92.3001 26.8 91.9251 26.5125C95.5126 29.2875 98.7376 32.5 101.5 36.0875C101.213 35.7125 100.913 35.325 100.625 34.95C103.375 38.525 105.65 42.4375 107.4 46.5875C107.213 46.1375 107.025 45.6875 106.838 45.25C108.6 49.45 109.8 53.8625 110.425 58.3875C110.363 57.8875 110.288 57.3875 110.225 56.8875C110.538 59.25 110.7 61.625 110.7 64C110.7 65.45 111.325 66.95 112.35 67.975C113.325 68.95 114.925 69.6875 116.325 69.625C117.775 69.5625 119.288 69.0875 120.3 67.975C121.313 66.875 121.95 65.525 121.95 64C121.938 54.7125 119.675 45.575 115.438 37.3125C113.375 33.3 110.775 29.5875 107.863 26.1625C104.963 22.75 101.613 19.8 98.0251 17.1375C94.7626 14.7125 91.2251 12.675 87.4876 11.0625C83.2376 9.24997 78.9251 7.79997 74.3876 7.02497C64.4126 5.31247 54.0251 5.96247 44.4876 9.46247C35.0626 12.925 26.4751 18.6625 20.0001 26.3625C19.0126 27.5375 18.0751 28.75 17.1626 29.975C16.3501 31.0625 16.2501 33.0625 16.6001 34.3125C16.9626 35.6125 17.9626 37.0375 19.1876 37.675C20.4876 38.3625 22.0751 38.7125 23.5251 38.2375C23.9751 38.05 24.4251 37.8625 24.8626 37.675C25.7001 37.1625 26.3751 36.5 26.8751 35.65Z"/>
<path d="M40.8375 27.9874C34.8625 27.9874 28.8875 27.9874 22.9125 27.9874C22.075 27.9874 21.225 27.9874 20.3875 27.9874C22.2625 29.8624 24.1375 31.7374 26.0125 33.6124C26.0125 27.6374 26.0125 21.6624 26.0125 15.6874C26.0125 14.8499 26.0125 13.9999 26.0125 13.1624C26.0125 11.7249 25.3875 10.1999 24.3625 9.18739C23.3875 8.21239 21.7875 7.47489 20.3875 7.53739C18.9375 7.59989 17.425 8.07489 16.4125 9.18739C15.4 10.2874 14.7625 11.6374 14.7625 13.1624V31.0874V33.6124C14.7625 36.6499 17.3375 39.2374 20.3875 39.2374H38.3125H40.8375C42.275 39.2374 43.8 38.6124 44.8125 37.5874C45.7875 36.6124 46.525 35.0124 46.4625 33.6124C46.4 32.1624 45.925 30.6499 44.8125 29.6374C43.7125 28.6249 42.3625 27.9874 40.8375 27.9874Z"/>
<path d="M101.125 92.35C100.938 92.6 100.75 92.85 100.563 93.0875C100.85 92.7125 101.15 92.325 101.438 91.95C98.675 95.525 95.4625 98.725 91.8875 101.488C92.2625 101.2 92.65 100.9 93.025 100.613C89.4625 103.338 85.575 105.613 81.45 107.363C81.9 107.175 82.35 106.988 82.7875 106.8C78.55 108.575 74.1125 109.788 69.5625 110.413C70.0625 110.35 70.5625 110.275 71.0625 110.213C66.35 110.838 61.5875 110.838 56.875 110.213C57.375 110.275 57.875 110.35 58.375 110.413C53.8625 109.788 49.45 108.588 45.2375 106.825C45.6875 107.013 46.1376 107.2 46.5751 107.388C42.4251 105.638 38.5125 103.35 34.9375 100.613C35.3125 100.9 35.7001 101.2 36.0751 101.488C32.4876 98.7125 29.2625 95.5 26.5 91.9125C26.7875 92.2875 27.0875 92.675 27.375 93.05C24.625 89.475 22.35 85.5625 20.6 81.4125C20.7875 81.8625 20.975 82.3125 21.1625 82.75C19.4 78.55 18.2 74.1375 17.575 69.6125C17.6375 70.1125 17.7125 70.6125 17.775 71.1125C17.4625 68.75 17.3 66.375 17.3 64C17.3 62.55 16.675 61.05 15.65 60.025C14.675 59.05 13.075 58.3125 11.675 58.375C10.225 58.4375 8.71255 58.9125 7.70005 60.025C6.68755 61.125 6.05005 62.475 6.05005 64C6.06255 73.2875 8.32505 82.425 12.5625 90.6875C14.625 94.7 17.225 98.4125 20.1375 101.838C23.0375 105.25 26.3875 108.2 29.975 110.863C33.2375 113.288 36.7751 115.325 40.5126 116.938C44.7376 118.75 49.0501 120.2 53.5876 120.975C63.5626 122.688 73.95 122.038 83.4875 118.538C92.9125 115.075 101.5 109.338 107.975 101.638C108.963 100.463 109.9 99.25 110.813 98.025C111.625 96.9375 111.725 94.9375 111.375 93.6875C111.013 92.3875 110.013 90.9625 108.788 90.325C107.488 89.6375 105.9 89.2875 104.45 89.7625C104 89.95 103.55 90.1375 103.113 90.325C102.3 90.8375 101.625 91.5 101.125 92.35Z"/>
<path d="M87.1626 100.012H105.088H107.613C105.738 98.1375 103.863 96.2625 101.988 94.3875V112.312V114.837C101.988 116.275 102.613 117.8 103.638 118.812C104.613 119.787 106.213 120.525 107.613 120.462C109.063 120.4 110.575 119.925 111.588 118.812C112.6 117.712 113.238 116.362 113.238 114.837C113.238 108.862 113.238 102.887 113.238 96.9125C113.238 96.075 113.238 95.225 113.238 94.3875C113.238 91.35 110.663 88.7625 107.613 88.7625C101.638 88.7625 95.6626 88.7625 89.6876 88.7625C88.8501 88.7625 88.0001 88.7625 87.1626 88.7625C85.7251 88.7625 84.2001 89.3875 83.1876 90.4125C82.2126 91.3875 81.4751 92.9875 81.5376 94.3875C81.6001 95.8375 82.0751 97.35 83.1876 98.3625C84.2876 99.375 85.6376 100.012 87.1626 100.012Z"/>
</svg>
